<?xml version="1.0" encoding="UTF-8" standalone="no"?>
<!-- Created with Inkscape (http://www.inkscape.org/) -->

<svg
   version="1.1"
   id="svg79073"
   width="800"
   height="800"
   viewBox="0 0 800 800"
   sodipodi:docname="sunset-landscape-pdv.svg"
   inkscape:version="1.2 (dc2aedaf03, 2022-05-15)"
   xmlns:inkscape="http://www.inkscape.org/namespaces/inkscape"
   xmlns:sodipodi="http://sodipodi.sourceforge.net/DTD/sodipodi-0.dtd"
   xmlns="http://www.w3.org/2000/svg"
   xmlns:svg="http://www.w3.org/2000/svg">
  <defs
     id="defs79077">
    <clipPath
       clipPathUnits="userSpaceOnUse"
       id="clipPath79091">
      <path
         d="M 0,600 H 600 V 0 H 0 Z"
         id="path79089" />
    </clipPath>
  </defs>
  <sodipodi:namedview
     id="namedview79075"
     pagecolor="#ffffff"
     bordercolor="#000000"
     borderopacity="0.25"
     inkscape:showpageshadow="2"
     inkscape:pageopacity="0.0"
     inkscape:pagecheckerboard="0"
     inkscape:deskcolor="#d1d1d1"
     showgrid="false"
     inkscape:zoom="1.04625"
     inkscape:cx="400"
     inkscape:cy="400.4779"
     inkscape:window-width="1920"
     inkscape:window-height="1017"
     inkscape:window-x="-8"
     inkscape:window-y="-8"
     inkscape:window-maximized="1"
     inkscape:current-layer="g79081">
    <inkscape:page
       x="0"
       y="0"
       id="page79079"
       width="800"
       height="800" />
  </sodipodi:namedview>
  <g
     id="g79081"
     inkscape:groupmode="layer"
     inkscape:label="Page 1"
     transform="matrix(1.3333333,0,0,-1.3333333,0,800)">
    <path
       d="M 1.341,0 H 600 V 600 H 1.341 Z"
       style="fill:#c6e446;fill-opacity:1;fill-rule:nonzero;stroke:none"
       id="path79083" />
    <g
       id="g79085">
      <g
         id="g79087"
         clip-path="url(#clipPath79091)">
        <g
           id="g79093"
           transform="translate(600.7588,337.0693)">
          <path
             d="m 0,0 -41.354,41.445 c -18.004,18.046 -47.377,18.046 -65.381,0 l -8.566,-8.585 c -7.326,-7.341 -19.273,-7.341 -26.599,0 l -4.074,4.081 c -10.071,10.095 -26.499,10.095 -36.57,0 l -91.589,-91.793 -109.013,109.257 c -7.325,7.342 -19.275,7.342 -26.6,0 l -2.01,-2.013 c -7.326,-7.342 -19.274,-7.342 -26.599,0 l -12.502,12.529 c -10.224,10.247 -26.902,10.247 -37.126,0 l -36.561,-36.642 c -8.337,-8.356 -20.674,-10.16 -31.046,-4.541 -9.95,5.389 -22.684,3.881 -31.073,-4.527 L -598.893,6.954 V -163.52 l 598.893,0 z"
             style="fill:#afd42c;fill-opacity:1;fill-rule:evenodd;stroke:none"
             id="path79095" />
        </g>
        <g
           id="g79097"
           transform="translate(600.7588,263.5166)">
          <path
             d="m 0,0 -66.267,66.412 c -10.222,10.247 -26.901,10.247 -37.124,0 l -9.264,-9.286 c -14.039,-14.068 -36.941,-14.068 -50.98,0.002 l -105.733,105.971 c -17.701,17.74 -46.575,17.74 -64.276,0 l -90.821,-91.025 c -10.834,-10.858 -28.509,-10.858 -39.343,0 l -0.331,0.331 c -8.851,8.871 -23.289,8.871 -32.14,0 l -38.119,-38.204 c -8.011,-8.029 -19.986,-9.61 -29.798,-3.931 l -5.015,2.901 c -6.495,3.759 -14.296,3 -19.949,-1.938 l -10.258,-8.961 -1.341,-112.239 H 0 Z"
             style="fill:#88b027;fill-opacity:1;fill-rule:evenodd;stroke:none"
             id="path79099" />
        </g>
        <path
           d="M 1.341,-0.759 H 600.759 V 173.55 H 1.341 Z"
           style="fill:#e0ef84;fill-opacity:1;fill-rule:evenodd;stroke:none"
           id="path79101" />
        <g
           id="g79103"
           transform="translate(577.6387,-0.7588)">
          <path
             d="m 0,0 h -173.636 c -0.167,1.368 -0.252,2.751 -0.252,4.144 0,29.835 38.982,54.019 87.072,54.019 48.086,0 87.07,-24.184 87.07,-54.019 C 0.254,2.751 0.168,1.368 0,0"
             style="fill:#f1f7b6;fill-opacity:1;fill-rule:evenodd;stroke:none"
             id="path79105" />
        </g>
        <g
           id="g79107"
           transform="translate(600.7588,89.0898)">
          <path
             d="m 0,0 -41.354,-21.409 c -18.004,-9.321 -47.377,-9.321 -65.381,0 l -8.566,4.435 c -7.326,3.792 -19.273,3.792 -26.599,0 l -4.074,-2.108 c -10.071,-5.213 -26.499,-5.213 -36.57,0 L -274.133,28.332 -383.146,-28.1 c -7.325,-3.793 -19.275,-3.793 -26.6,0 l -2.01,1.039 c -7.326,3.793 -19.274,3.793 -26.599,0 l -12.502,-6.473 c -10.224,-5.291 -26.902,-5.291 -37.126,0 l -36.561,18.928 c -8.337,4.316 -20.674,5.247 -31.046,2.345 -9.95,-2.786 -22.684,-2.006 -31.073,2.338 l -12.23,6.329 V 84.46 L 0,84.46 Z"
             style="fill:#d0e85b;fill-opacity:1;fill-rule:evenodd;stroke:none"
             id="path79109" />
        </g>
        <g
           id="g79111"
           transform="translate(600.7588,126.0381)">
          <path
             d="m 0,0 -66.267,-35.07 c -10.222,-5.409 -26.901,-5.409 -37.124,0 l -9.264,4.905 c -14.039,7.429 -36.941,7.429 -50.98,0 l -105.733,-55.961 c -17.701,-9.369 -46.575,-9.369 -64.276,0 l -90.821,48.067 c -10.834,5.734 -28.509,5.734 -39.343,0 l -0.331,-0.174 c -8.851,-4.684 -23.289,-4.684 -32.14,0 l -38.119,20.174 c -8.011,4.241 -19.986,5.076 -29.798,2.077 l -5.015,-1.534 c -6.495,-1.984 -14.296,-1.585 -19.949,1.023 l -10.258,4.732 -1.341,59.273 H 0 Z"
             style="fill:#c1e14a;fill-opacity:1;fill-rule:evenodd;stroke:none"
             id="path79113" />
        </g>
        <g
           id="g79115"
           transform="translate(600.7588,210.9492)">
          <path
             d="m 0,0 -41.737,41.829 c -9.025,9.044 -23.188,9.894 -33.224,1.994 L -91.608,30.718 c -13.103,-10.317 -31.472,-9.441 -43.539,2.075 l -45.918,43.824 c -13.233,12.628 -34.146,12.371 -47.065,-0.576 l -50.523,-50.638 c -13.276,-13.304 -34.933,-13.304 -48.208,0 l -13.459,13.49 c -6.715,6.73 -17.668,6.73 -24.383,0 l -7.655,-7.672 c -2.597,-2.602 -5.824,-3.85 -9.493,-3.666 -3.667,0.183 -6.755,1.745 -9.082,4.594 l -24.497,30.009 c -5.341,6.542 -12.412,10.145 -20.833,10.614 -8.421,0.468 -15.846,-2.327 -21.877,-8.236 l -42.207,-41.353 c -3.317,-3.251 -7.358,-4.832 -11.993,-4.694 -4.637,0.138 -8.577,1.956 -11.696,5.398 l -2.726,3.009 c -5.06,5.583 -11.458,8.528 -18.981,8.739 -7.523,0.209 -14.074,-2.376 -19.437,-7.668 L -599.418,-5.825 V -37.399 H 0 Z"
             style="fill:#618029;fill-opacity:1;fill-rule:evenodd;stroke:none"
             id="path79117" />
        </g>
        <g
           id="g79119"
           transform="translate(98.1567,274.9434)">
          <path
             d="M 0,0 2.693,-28.205 5.387,-56.411 H 0 -5.386 l 2.694,28.206 z"
             style="fill:#618029;fill-opacity:1;fill-rule:evenodd;stroke:none"
             id="path79121" />
        </g>
        <g
           id="g79123"
           transform="translate(218.812,262.8926)">
          <path
             d="M 0,0 2.694,-28.205 5.387,-56.411 H 0 -5.385 l 2.693,28.206 z"
             style="fill:#618029;fill-opacity:1;fill-rule:evenodd;stroke:none"
             id="path79125" />
        </g>
        <g
           id="g79127"
           transform="translate(347.6563,308.3193)">
          <path
             d="M 0,0 2.694,-28.206 5.387,-56.411 H 0 -5.385 l 2.693,28.205 z"
             style="fill:#618029;fill-opacity:1;fill-rule:evenodd;stroke:none"
             id="path79129" />
        </g>
        <g
           id="g79131"
           transform="translate(342.2715,289.5156)">
          <path
             d="M 0,0 2.692,-28.206 5.385,-56.411 H 0 -5.387 l 2.695,28.205 z"
             style="fill:#618029;fill-opacity:1;fill-rule:evenodd;stroke:none"
             id="path79133" />
        </g>
        <g
           id="g79135"
           transform="translate(336.9766,276.5273)">
          <path
             d="M 0,0 2.692,-28.205 5.386,-56.411 H 0 -5.387 l 2.695,28.206 z"
             style="fill:#618029;fill-opacity:1;fill-rule:evenodd;stroke:none"
             id="path79137" />
        </g>
        <g
           id="g79139"
           transform="translate(454.3242,285.4365)">
          <path
             d="M 0,0 2.693,-28.205 5.385,-56.411 H 0 -5.386 l 2.692,28.206 z"
             style="fill:#618029;fill-opacity:1;fill-rule:evenodd;stroke:none"
             id="path79141" />
        </g>
        <g
           id="g79143"
           transform="translate(519.416,297.0723)">
          <path
             d="M 0,0 2.691,-28.205 5.386,-56.411 H 0 -5.388 l 2.695,28.206 z"
             style="fill:#618029;fill-opacity:1;fill-rule:evenodd;stroke:none"
             id="path79145" />
        </g>
        <g
           id="g79147"
           transform="translate(512.4092,281.9561)">
          <path
             d="M 0,0 2.69,-28.204 5.385,-56.41 H 0 -5.389 l 2.695,28.206 z"
             style="fill:#618029;fill-opacity:1;fill-rule:evenodd;stroke:none"
             id="path79149" />
        </g>
        <g
           id="g79151"
           transform="translate(575.0146,272.3984)">
          <path
             d="M 0,0 2.694,-28.205 5.389,-56.411 H 0 -5.385 l 2.695,28.206 z"
             style="fill:#618029;fill-opacity:1;fill-rule:evenodd;stroke:none"
             id="path79153" />
        </g>
        <g
           id="g79155"
           transform="translate(600.7588,149.3633)">
          <path
             d="m 0,0 -41.737,-27.05 c -9.025,-5.849 -23.188,-6.397 -33.224,-1.291 l -16.647,8.477 c -13.103,6.67 -31.472,6.102 -43.539,-1.345 l -45.918,-28.338 c -13.233,-8.165 -34.146,-8.001 -47.065,0.373 l -50.523,32.746 c -13.276,8.603 -34.933,8.603 -48.208,0 l -13.459,-8.724 c -6.715,-4.352 -17.668,-4.352 -24.383,0 l -7.655,4.961 c -2.597,1.684 -5.824,2.489 -9.493,2.37 -3.667,-0.116 -6.755,-1.128 -9.082,-2.969 l -24.497,-19.406 c -5.341,-4.233 -12.412,-6.562 -20.833,-6.865 -8.421,-0.302 -15.846,1.504 -21.877,5.327 l -42.207,26.742 c -3.317,2.102 -7.358,3.123 -11.993,3.037 -4.637,-0.092 -8.577,-1.267 -11.696,-3.49 l -2.726,-1.947 c -5.06,-3.612 -11.458,-5.517 -18.981,-5.652 -7.523,-0.136 -14.074,1.535 -19.437,4.958 l -34.238,21.852 v 20.42 L 0,24.186 Z"
             style="fill:#a9cc30;fill-opacity:1;fill-rule:evenodd;stroke:none"
             id="path79157" />
        </g>
        <g
           id="g79159"
           transform="translate(98.1567,107.9795)">
          <path
             d="m 0,0 2.693,18.239 2.694,18.24 H 0 -5.386 l 2.694,-18.24 z"
             style="fill:#a9cc30;fill-opacity:1;fill-rule:evenodd;stroke:none"
             id="path79161" />
        </g>
        <g
           id="g79163"
           transform="translate(218.812,115.7725)">
          <path
             d="m 0,0 2.694,18.239 2.693,18.24 H 0 -5.385 l 2.693,-18.24 z"
             style="fill:#a9cc30;fill-opacity:1;fill-rule:evenodd;stroke:none"
             id="path79165" />
        </g>
        <g
           id="g79167"
           transform="translate(347.6563,86.3955)">
          <path
             d="m 0,0 2.694,18.239 2.693,18.24 H 0 -5.385 l 2.693,-18.24 z"
             style="fill:#a9cc30;fill-opacity:1;fill-rule:evenodd;stroke:none"
             id="path79169" />
        </g>
        <g
           id="g79171"
           transform="translate(342.2715,98.5557)">
          <path
             d="M 0,0 2.692,18.24 5.385,36.479 H 0 -5.387 L -2.692,18.24 Z"
             style="fill:#a9cc30;fill-opacity:1;fill-rule:evenodd;stroke:none"
             id="path79173" />
        </g>
        <g
           id="g79175"
           transform="translate(336.9766,106.9541)">
          <path
             d="M 0,0 2.692,18.242 5.386,36.481 H 0 -5.387 l 2.695,-18.239 z"
             style="fill:#a9cc30;fill-opacity:1;fill-rule:evenodd;stroke:none"
             id="path79177" />
        </g>
        <g
           id="g79179"
           transform="translate(454.3242,101.1934)">
          <path
             d="m 0,0 2.693,18.239 2.692,18.24 H 0 -5.386 l 2.692,-18.24 z"
             style="fill:#a9cc30;fill-opacity:1;fill-rule:evenodd;stroke:none"
             id="path79181" />
        </g>
        <g
           id="g79183"
           transform="translate(519.416,93.6699)">
          <path
             d="M 0,0 2.691,18.24 5.386,36.479 H 0 -5.388 L -2.693,18.24 Z"
             style="fill:#a9cc30;fill-opacity:1;fill-rule:evenodd;stroke:none"
             id="path79185" />
        </g>
        <g
           id="g79187"
           transform="translate(512.4092,103.4443)">
          <path
             d="M 0,0 2.69,18.24 5.385,36.479 H 0 -5.389 L -2.694,18.24 Z"
             style="fill:#a9cc30;fill-opacity:1;fill-rule:evenodd;stroke:none"
             id="path79189" />
        </g>
        <g
           id="g79191"
           transform="translate(575.0146,109.623)">
          <path
             d="m 0,0 2.694,18.242 2.695,18.24 H 0 -5.385 l 2.695,-18.24 z"
             style="fill:#a9cc30;fill-opacity:1;fill-rule:evenodd;stroke:none"
             id="path79193" />
        </g>
        <g
           id="g79195"
           transform="translate(490.8223,407.8877)">
          <path
             d="m 0,0 c 47.957,0 87.07,39.114 87.07,87.071 0,47.956 -39.113,87.07 -87.07,87.07 -47.957,0 -87.071,-39.114 -87.071,-87.07 C -87.071,39.114 -47.957,0 0,0"
             style="fill:#ecf5ae;fill-opacity:1;fill-rule:evenodd;stroke:none"
             id="path79197" />
        </g>
        <g
           id="g79199"
           transform="translate(294.1377,543)">
          <path
             d="m 0,0 c 4.713,0 8.692,-3.15 9.955,-7.464 h -119.769 c -0.025,0.352 -0.039,0.707 -0.039,1.066 0,8.245 6.67,14.928 14.895,14.928 1.873,0 3.666,-0.346 5.318,-0.98 3.633,5.608 9.619,9.543 16.557,10.401 0.831,10.837 9.867,19.371 20.894,19.371 11.573,0 20.956,-9.404 20.956,-21.004 0,-1.111 -0.087,-2.201 -0.252,-3.265 2.826,2.179 6.365,3.475 10.206,3.475 9.256,0 16.757,-7.519 16.757,-16.794 0,-0.262 -0.006,-0.522 -0.018,-0.78 C -3.169,-0.377 -1.627,0 0,0"
             style="fill:#fafce9;fill-opacity:1;fill-rule:evenodd;stroke:none"
             id="path79201" />
        </g>
        <g
           id="g79203"
           transform="translate(461.5693,473.1523)">
          <path
             d="m 0,0 c 0.44,1.501 0.677,3.09 0.677,4.733 0,9.269 -7.498,16.783 -16.746,16.783 -7.929,0 -14.569,-5.523 -16.302,-12.94 -4.789,4.3 -11.113,6.916 -18.046,6.916 -0.623,0 -1.24,-0.023 -1.851,-0.065 -2.549,12.321 -13.439,21.58 -26.487,21.58 -10.453,0 -19.52,-5.943 -24.024,-14.641 -6.777,6.911 -16.208,11.199 -26.642,11.199 -11.696,0 -22.136,-5.39 -28.984,-13.824 -3.282,1.686 -7.005,2.636 -10.945,2.636 -12.701,0 -23.102,-9.872 -23.983,-22.377 z"
             style="fill:#fafce9;fill-opacity:1;fill-rule:evenodd;stroke:none"
             id="path79205" />
        </g>
        <g
           id="g79207"
           transform="translate(148.0742,479.8398)">
          <path
             d="m 0,0 c 7.161,-2.427 12.785,-8.196 15.026,-15.454 1.134,0.221 2.305,0.338 3.504,0.338 8.072,0 14.919,-5.258 17.316,-12.544 h -164.518 c -0.002,0.09 -0.003,0.182 -0.003,0.272 0,7.079 5.725,12.818 12.789,12.818 0.635,0 1.259,-0.048 1.869,-0.137 4.128,8.17 12.584,13.772 22.347,13.772 5.278,0 10.174,-1.639 14.211,-4.435 5.58,9.507 15.891,15.889 27.692,15.889 1.539,0 3.052,-0.111 4.532,-0.321 3.551,8.516 11.941,14.501 21.725,14.501 12.999,0 23.537,-10.56 23.537,-23.589 C 0.027,0.738 0.018,0.368 0,0"
             style="fill:#fafce9;fill-opacity:1;fill-rule:evenodd;stroke:none"
             id="path79209" />
        </g>
        <g
           id="g79211"
           transform="translate(26.561,539.4453)">
          <path
             d="m 0,0 c -0.339,1.029 -0.522,2.129 -0.522,3.273 0,5.766 4.664,10.44 10.417,10.44 3.617,0 6.803,-1.847 8.67,-4.652 1.872,0.981 3.999,1.536 6.258,1.536 3.485,0 6.662,-1.322 9.061,-3.492 3.318,4.749 8.816,7.855 15.04,7.855 5.38,0 10.22,-2.321 13.577,-6.019 2.605,2.748 6.287,4.461 10.368,4.461 5.005,0 9.408,-2.576 11.965,-6.477 0.598,0.158 1.226,0.243 1.874,0.243 3.984,0 7.223,-3.195 7.306,-7.168 z"
             style="fill:#fafce9;fill-opacity:1;fill-rule:evenodd;stroke:none"
             id="path79213" />
        </g>
        <g
           id="g79215"
           transform="translate(461.5693,25.0879)">
          <path
             d="m 0,0 c 0.44,-0.994 0.677,-2.044 0.677,-3.132 0,-6.133 -7.498,-11.102 -16.746,-11.102 -7.929,0 -14.569,3.655 -16.302,8.559 -4.789,-2.842 -11.113,-4.575 -18.046,-4.575 -0.623,0 -1.24,0.017 -1.851,0.043 -2.549,-8.149 -13.439,-14.276 -26.487,-14.276 -10.453,0 -19.52,3.932 -24.024,9.687 -6.777,-4.572 -16.208,-7.409 -26.642,-7.409 -11.696,0 -22.136,3.565 -28.984,9.145 -3.282,-1.115 -7.005,-1.744 -10.945,-1.744 -12.701,0 -23.102,6.531 -23.983,14.804 z"
             style="fill:#fafce9;fill-opacity:1;fill-rule:evenodd;stroke:none"
             id="path79217" />
        </g>
        <g
           id="g79219"
           transform="translate(148.0742,20.6631)">
          <path
             d="m 0,0 c 7.161,1.606 12.785,5.423 15.026,10.223 1.134,-0.146 2.305,-0.222 3.504,-0.222 8.072,0 14.919,3.478 17.316,8.298 h -164.518 c -0.002,-0.059 -0.003,-0.121 -0.003,-0.181 0,-4.683 5.725,-8.478 12.789,-8.478 0.635,0 1.259,0.029 1.869,0.089 4.128,-5.405 12.584,-9.111 22.347,-9.111 5.278,0 10.174,1.085 14.211,2.935 5.58,-6.29 15.891,-10.512 27.692,-10.512 1.539,0 3.052,0.073 4.532,0.214 3.551,-5.634 11.941,-9.594 21.725,-9.594 12.999,0 23.537,6.985 23.537,15.605 C 0.027,-0.488 0.018,-0.243 0,0"
             style="fill:#fafce9;fill-opacity:1;fill-rule:evenodd;stroke:none"
             id="path79221" />
        </g>
      </g>
    </g>
  </g>
</svg>
